<svg id="Layer_1" data-name="Layer 1" xmlns="http://www.w3.org/2000/svg" viewBox="0 0 598 199.39"><defs><style>.cls-1{fill:#fff}.cls-2{fill:#16b1a9}</style></defs><title>MoreiraDevelopment</title><path class="cls-1" d="M222.62 38.41l-17.64 50.06-17.73-50.06h-18.58v69.03h14.22V88.57l-.04-.91V59.87l17.2 47.57h9.77l17.21-47.52v47.52h14.27V38.41h-18.68z"/><path class="cls-1" d="M337.8 124.94a39.47 39.47 0 0 1-3.8 17.87 27.75 27.75 0 0 1-11 11.85 34.33 34.33 0 0 1-32.72 0 28.06 28.06 0 0 1-11.12-11.78 38.38 38.38 0 0 1-4-17.61v-3.41a39.27 39.27 0 0 1 3.9-17.86 28 28 0 0 1 11.07-11.9 34.29 34.29 0 0 1 32.69 0 28 28 0 0 1 11.07 11.9 39.17 39.17 0 0 1 3.92 17.9zm-15.36-3.13q0-10.86-4.14-16.5t-11.82-5.64q-7.63 0-11.77 5.57t-4.2 16.33v3.37q0 10.57 4.14 16.4t11.93 5.83q7.63 0 11.72-5.62t4.14-16.38zm49.72 10.81h-11.33v25.27h-14.22v-69h25.65q12.23 0 18.87 5.45t6.64 15.41a21.24 21.24 0 0 1-3.06 11.78 20.86 20.86 0 0 1-9.27 7.51l14.93 28.21v.66H385.1zm-11.33-11.52h11.47q5.36 0 8.3-2.73a9.74 9.74 0 0 0 2.94-7.51 10.43 10.43 0 0 0-2.77-7.68q-2.77-2.8-8.51-2.8h-11.43zm92.02 6.78h-27.31v18.58h32v11.43h-46.22v-69h46.18v11.52h-32v16.45h27.31zm29.95 30.01h-14.22v-69h14.22zm37.99-25.27h-11.33v25.27h-14.23v-69h25.65q12.23 0 18.87 5.45t6.64 15.41a21.24 21.24 0 0 1-3.06 11.78 20.86 20.86 0 0 1-9.27 7.51L549 157.23v.66h-15.27zm-11.33-11.52h11.47q5.36 0 8.3-2.73a9.74 9.74 0 0 0 2.94-7.51 10.43 10.43 0 0 0-2.77-7.68q-2.77-2.8-8.51-2.8h-11.43zm92.63 22.57h-24.94l-4.74 14.22h-15.12l25.7-69h13.18l25.84 69h-15.13zM581 132.15h17.26l-8.68-25.84z" transform="translate(-24 -50.45)"/><path class="cls-2" d="M192.67 211.58v-42.16h11.78a18.34 18.34 0 0 1 9.29 2.36 16.31 16.31 0 0 1 6.41 6.76 21.28 21.28 0 0 1 2.3 10v3.88a21.3 21.3 0 0 1-2.29 10 16.27 16.27 0 0 1-6.44 6.75 18.89 18.89 0 0 1-9.54 2.37zm3.56-39.15v36.14h8a13.75 13.75 0 0 0 10.68-4.42q4-4.42 4-12v-3.71q0-7.27-4-11.65a13.52 13.52 0 0 0-10.45-4.41zm58.05 18.94h-19.72v17.2h22.67v3H231v-42.15h26.09v3h-22.53v15.93h19.72zm28.44 15l.23.9.26-.9 13.26-36.95h3.91l-15.69 42.16h-3.42l-15.69-42.16h3.88zm49.21-15h-19.72v17.2h22.67v3h-26.23v-42.15h26.09v3h-22.53v15.93h19.72zm17.4 17.2h20.82v3h-24.41v-42.15h3.59zm64.14-15.78a21.41 21.41 0 0 1-2.35 10.21 16.27 16.27 0 0 1-6.7 6.78 20.7 20.7 0 0 1-10.06 2.37q-8.61 0-13.91-5.29t-5.3-14.26v-4.34a21.3 21.3 0 0 1 2.38-10.21 16.53 16.53 0 0 1 6.74-6.83 20.53 20.53 0 0 1 10-2.39 20.74 20.74 0 0 1 10 2.35 16.4 16.4 0 0 1 6.7 6.63 21 21 0 0 1 2.47 9.93zm-4.15-4.57q0-7.62-4-11.93t-11-4.31q-6.86 0-10.93 4.33t-4.07 12.09v4.4q0 7.5 4.05 11.89t11 4.39q7.06 0 11-4.33t4-12.06zm18.02 6.19v17.17h-3.56v-42.16h14.36q6.57 0 10.38 3.36a11.68 11.68 0 0 1 3.81 9.24q0 5.94-3.66 9.16t-10.61 3.23zm0-3h10.8q5.18 0 7.9-2.47a8.8 8.8 0 0 0 2.72-6.87 9.21 9.21 0 0 0-2.71-7q-2.71-2.59-7.69-2.65h-11zm109.29-.04h-19.72v17.2h22.67v3h-26.23v-42.15h26.09v3h-22.53v15.93h19.72zm43.92 20.21H577l-24.24-36.08v36.08h-3.59v-42.16h3.59L577 205.53v-36.11h3.53zm41.07-39.14h-14.45v39.15h-3.56v-39.15h-14.42v-3h32.43z" transform="translate(-24 -50.45)"/><path class="cls-2" d="M0 38.39v30.62l68.99 38.37V76.73L0 38.39z"/><path class="cls-1" d="M137.99 38.39v30.62L69 107.38V76.73l68.99-38.34z"/><path class="cls-2" d="M.79 38.84L68.99.88V0L0 38.4l.79.44z"/><path class="cls-1" d="M137.21 38.84L69 .88V0l68.99 38.4-.78.44z"/><path class="cls-2" d="M0 84.41v30.62l68.99 38.36v-30.65L0 84.41z"/><path class="cls-1" d="M137.99 84.41v30.62L69 153.39v-30.65l68.99-38.33z"/><path class="cls-2" d="M13.84 76.71L0 84.41l.79.44 13.84-7.7-.79-.44z"/><path class="cls-1" d="M123.36 77.15l13.85 7.7.78-.44-13.84-7.7-.79.44z"/><path class="cls-2" d="M0 130.41v30.62l68.99 38.36v-30.65L0 130.41z"/><path class="cls-1" d="M137.99 130.41v30.62L69 199.39v-30.65l68.99-38.33z"/><path class="cls-2" d="M13.84 122.71L0 130.41l.79.44 13.84-7.7-.79-.44z"/><path class="cls-1" d="M123.36 123.15l13.85 7.7.78-.44-13.84-7.7-.79.44z"/><path class="cls-2" d="M473.27 118.97l-15.61 37.21-15.55-37.21h-4.72v42.16h3.56v-18.47l-.02-1.56v-16.38l15.37 36.41h2.75l15.34-36.34v36.22h.06v.12h3.57v-42.16h-4.75z"/></svg>